<svg width="126" height="24" viewBox="0 0 126 24" fill="none" xmlns="http://www.w3.org/2000/svg">
<path opacity="0.5" d="M124.53 12.5303C124.823 12.2374 124.823 11.7626 124.53 11.4697L119.757 6.6967C119.464 6.40381 118.99 6.40381 118.697 6.6967C118.404 6.98959 118.404 7.46447 118.697 7.75736L122.939 12L118.697 16.2426C118.404 16.5355 118.404 17.0104 118.697 17.3033C118.99 17.5962 119.464 17.5962 119.757 17.3033L124.53 12.5303ZM0 12.75H1.47619V11.25H0V12.75ZM4.42857 12.75H7.38095V11.25H4.42857V12.75ZM10.3333 12.75H13.2857V11.25H10.3333V12.75ZM16.2381 12.75H19.1905V11.25H16.2381V12.75ZM22.1429 12.75H25.0952V11.25H22.1429V12.75ZM28.0476 12.75H31V11.25H28.0476V12.75ZM33.9524 12.75H36.9048V11.25H33.9524V12.75ZM39.8571 12.75H42.8095V11.25H39.8571V12.75ZM45.7619 12.75H48.7143V11.25H45.7619V12.75ZM51.6667 12.75H54.619V11.25H51.6667V12.75ZM57.5714 12.75H60.5238V11.25H57.5714V12.75ZM63.4762 12.75H66.4286V11.25H63.4762V12.75ZM69.381 12.75H72.3333V11.25H69.381V12.75ZM75.2857 12.75H78.2381V11.25H75.2857V12.75ZM81.1905 12.75H84.1428V11.25H81.1905V12.75ZM87.0952 12.75H90.0476V11.25H87.0952V12.75ZM93 12.75H95.9523V11.25H93V12.75ZM98.9047 12.75H101.857V11.25H98.9047V12.75ZM104.809 12.75H107.762V11.25H104.809V12.75ZM110.714 12.75H113.667V11.25H110.714V12.75ZM116.619 12.75H119.571V11.25H116.619V12.75ZM122.524 12.75H124V11.25H122.524V12.75ZM125.061 13.0607C125.646 12.4749 125.646 11.5251 125.061 10.9393L115.515 1.3934C114.929 0.807611 113.979 0.807611 113.393 1.3934C112.808 1.97919 112.808 2.92893 113.393 3.51472L121.879 12L113.393 20.4853C112.808 21.0711 112.808 22.0208 113.393 22.6066C113.979 23.1924 114.929 23.1924 115.515 22.6066L125.061 13.0607ZM0 13.5H1.47619V10.5H0V13.5ZM4.42857 13.5H7.38095V10.5H4.42857V13.5ZM10.3333 13.5H13.2857V10.5H10.3333V13.5ZM16.2381 13.5H19.1905V10.5H16.2381V13.5ZM22.1429 13.5H25.0952V10.5H22.1429V13.5ZM28.0476 13.5H31V10.5H28.0476V13.5ZM33.9524 13.5H36.9048V10.5H33.9524V13.5ZM39.8571 13.5H42.8095V10.5H39.8571V13.5ZM45.7619 13.5H48.7143V10.5H45.7619V13.5ZM51.6667 13.5H54.619V10.5H51.6667V13.5ZM57.5714 13.5H60.5238V10.5H57.5714V13.5ZM63.4762 13.5H66.4286V10.5H63.4762V13.5ZM69.381 13.5H72.3333V10.5H69.381V13.5ZM75.2857 13.5H78.2381V10.5H75.2857V13.5ZM81.1905 13.5H84.1428V10.5H81.1905V13.5ZM87.0952 13.5H90.0476V10.5H87.0952V13.5ZM93 13.5H95.9523V10.5H93V13.5ZM98.9047 13.5H101.857V10.5H98.9047V13.5ZM104.809 13.5H107.762V10.5H104.809V13.5ZM110.714 13.5H113.667V10.5H110.714V13.5ZM116.619 13.5H119.571V10.5H116.619V13.5ZM122.524 13.5H124V10.5H122.524V13.5Z" fill="#1A5D88"/>
</svg>
