<svg width="223" height="48" viewBox="0 0 223 48" fill="none" xmlns="http://www.w3.org/2000/svg">
<path d="M57.4935 37.53H54.4258V36.4163H61.8404V37.53H58.7664V45.3838H57.4935V37.53Z" fill="white"/>
<path d="M68.4629 42.3987H62.9576C63.0356 42.981 63.3337 43.5114 63.7906 43.8807C64.2475 44.25 64.8286 44.4303 65.4143 44.3844C65.7809 44.3969 66.1459 44.3299 66.4842 44.1882C66.8226 44.0465 67.1263 43.8334 67.3746 43.5634L68.0556 44.359C67.7163 44.7268 67.3007 45.016 66.8378 45.2062C66.3749 45.3964 65.876 45.483 65.3762 45.46C63.1868 45.46 61.7293 44.0089 61.7293 41.985C61.7108 41.5305 61.7859 41.0771 61.9498 40.6529C62.1138 40.2286 62.363 39.8425 62.6823 39.5185C63.0015 39.1946 63.3838 38.9396 63.8056 38.7694C64.2274 38.5992 64.6796 38.5174 65.1343 38.5291C65.5902 38.5165 66.0437 38.5993 66.4657 38.7724C66.8877 38.9454 67.2689 39.2047 67.5847 39.5338C67.9006 39.8628 68.1441 40.2542 68.2997 40.6829C68.4554 41.1116 68.5196 41.5682 68.4884 42.0232C68.4884 42.1314 68.4757 42.2841 68.4629 42.3987ZM62.9576 41.514H67.311C67.2528 40.9773 66.9985 40.481 66.5967 40.1204C66.195 39.7598 65.6742 39.5604 65.1343 39.5604C64.5945 39.5604 64.0736 39.7598 63.6719 40.1204C63.2701 40.481 63.0158 40.9773 62.9576 41.514V41.514Z" fill="white"/>
<path d="M69.5594 41.9856C69.5499 41.5183 69.6371 41.054 69.8155 40.622C69.9938 40.1899 70.2596 39.7994 70.596 39.4749C70.9325 39.1504 71.3324 38.8989 71.7706 38.7363C72.2088 38.5736 72.6759 38.5033 73.1426 38.5297C73.6925 38.4964 74.2411 38.6139 74.729 38.8697C75.2169 39.1254 75.6257 39.5096 75.9112 39.9808L74.9756 40.5791C74.779 40.2704 74.5054 40.0183 74.1818 39.8476C73.8582 39.6768 73.4956 39.5933 73.1299 39.6053C72.5174 39.6369 71.9404 39.9025 71.5181 40.3472C71.0957 40.7919 70.8602 41.3819 70.8602 41.9952C70.8602 42.6085 71.0957 43.1984 71.5181 43.6431C71.9404 44.0878 72.5174 44.3534 73.1299 44.385C73.4953 44.3951 73.8571 44.3108 74.1805 44.1402C74.5038 43.9697 74.7776 43.7186 74.9756 43.4113L75.9112 43.9968C75.6263 44.4694 75.218 44.8554 74.7302 45.1133C74.2424 45.3712 73.6936 45.4913 73.1426 45.4606C72.6748 45.4853 72.2068 45.4131 71.7681 45.2486C71.3294 45.0841 70.9294 44.8308 70.5931 44.5047C70.2567 44.1785 69.9914 43.7864 69.8135 43.353C69.6356 42.9195 69.5491 42.454 69.5594 41.9856V41.9856Z" fill="white"/>
<path d="M83.8549 41.4762V45.384H82.6266V41.6163C82.6266 40.2861 81.9583 39.6305 80.7936 39.6305C79.4889 39.6305 78.6424 40.4134 78.6424 41.8836V45.384H77.4141V35.8818H78.6424V39.5541C78.9362 39.2115 79.3047 38.9409 79.7196 38.7632C80.1346 38.5856 80.5847 38.5056 81.0355 38.5295C82.6902 38.5295 83.8549 39.4778 83.8549 41.4762Z" fill="white"/>
<path d="M92.5698 41.476V45.3838H91.3414V41.6161C91.3414 40.2859 90.705 39.6303 89.5085 39.6303C88.2356 39.6303 87.3572 40.4132 87.3572 41.8834V45.3838H86.1289V38.6247H87.3063V39.6494C87.5976 39.2865 87.9713 38.9983 88.3964 38.809C88.8215 38.6197 89.2857 38.5347 89.7503 38.5611C91.4051 38.5293 92.5698 39.4776 92.5698 41.476Z" fill="white"/>
<path d="M94.2671 41.9848C94.2557 41.2839 94.4532 40.5954 94.8343 40.007C95.2155 39.4187 95.7631 38.957 96.4075 38.6809C97.0518 38.4047 97.7638 38.3265 98.4527 38.4563C99.1416 38.5861 99.7764 38.9179 100.276 39.4095C100.776 39.9012 101.118 40.5304 101.259 41.2171C101.4 41.9038 101.333 42.617 101.068 43.2657C100.802 43.9145 100.35 44.4696 99.7676 44.8603C99.1856 45.2511 98.5004 45.4598 97.7994 45.4599C97.3347 45.4811 96.8707 45.4062 96.4363 45.2398C96.002 45.0734 95.6067 44.8192 95.2751 44.493C94.9435 44.1668 94.6828 43.7757 94.5094 43.3441C94.3359 42.9125 94.2535 42.4498 94.2671 41.9848ZM100.078 41.9848C100.055 41.5382 99.9025 41.108 99.6379 40.7475C99.3733 40.387 99.0088 40.1121 98.5894 39.9568C98.1701 39.8015 97.7144 39.7726 97.2788 39.8738C96.8432 39.975 96.4469 40.2018 96.139 40.5261C95.8311 40.8503 95.6251 41.2578 95.5465 41.698C95.468 42.1382 95.5203 42.5918 95.6971 43.0026C95.8739 43.4133 96.1673 43.7632 96.541 44.0088C96.9147 44.2544 97.3522 44.3849 97.7994 44.3842C98.1112 44.3923 98.4212 44.3348 98.7094 44.2154C98.9976 44.0961 99.2575 43.9175 99.4723 43.6913C99.6871 43.4651 99.852 43.1964 99.9563 42.9024C100.061 42.6084 100.102 42.2958 100.078 41.9848V41.9848Z" fill="white"/>
<path d="M103.023 35.8818H104.252V45.384H103.023V35.8818Z" fill="white"/>
<path d="M105.974 41.9848C105.963 41.2839 106.16 40.5954 106.541 40.007C106.923 39.4187 107.47 38.957 108.114 38.6809C108.759 38.4047 109.471 38.3265 110.16 38.4563C110.849 38.5861 111.483 38.9179 111.983 39.4095C112.483 39.9012 112.825 40.5304 112.966 41.2171C113.107 41.9038 113.041 42.617 112.775 43.2657C112.509 43.9145 112.057 44.4696 111.475 44.8603C110.893 45.2511 110.207 45.4598 109.506 45.4599C109.042 45.4811 108.578 45.4062 108.143 45.2398C107.709 45.0734 107.314 44.8192 106.982 44.493C106.651 44.1668 106.39 43.7757 106.216 43.3441C106.043 42.9125 105.96 42.4498 105.974 41.9848V41.9848ZM111.791 41.9848C111.77 41.5366 111.618 41.1045 111.353 40.7421C111.089 40.3797 110.723 40.1029 110.303 39.9462C109.883 39.7894 109.425 39.7596 108.988 39.8603C108.551 39.9611 108.153 40.188 107.843 40.513C107.534 40.8379 107.327 41.2466 107.247 41.6883C107.168 42.1299 107.22 42.5851 107.397 42.9974C107.575 43.4097 107.869 43.7609 108.244 44.0074C108.619 44.254 109.058 44.385 109.506 44.3842C109.819 44.3932 110.129 44.3364 110.418 44.2174C110.707 44.0985 110.968 43.92 111.184 43.6937C111.399 43.4675 111.565 43.1984 111.669 42.904C111.774 42.6095 111.815 42.2964 111.791 41.9848V41.9848Z" fill="white"/>
<path d="M121.228 38.6249V44.493C121.228 46.8861 120.006 47.9744 117.702 47.9744C116.538 48.0238 115.392 47.666 114.463 46.9624L115.055 46.0141C115.797 46.6008 116.718 46.9133 117.664 46.8988C119.268 46.8988 119.994 46.1542 119.994 44.6203V44.0793C119.69 44.4255 119.313 44.6995 118.891 44.8812C118.468 45.0629 118.01 45.1477 117.55 45.1295C117.101 45.1574 116.652 45.0932 116.229 44.9408C115.806 44.7884 115.419 44.551 115.092 44.2433C114.764 43.9356 114.503 43.5641 114.325 43.1517C114.147 42.7393 114.055 42.2947 114.055 41.8454C114.055 41.396 114.147 40.9515 114.325 40.5391C114.503 40.1266 114.764 39.7551 115.092 39.4474C115.419 39.1398 115.806 38.9024 116.229 38.75C116.652 38.5976 117.101 38.5334 117.55 38.5613C118.026 38.5425 118.5 38.6331 118.936 38.8262C119.372 39.0192 119.758 39.3097 120.064 39.6751V38.6249H121.228ZM120.025 41.8072C120.051 41.3391 119.935 40.8742 119.694 40.4725C119.452 40.0708 119.095 39.7509 118.67 39.5541C118.244 39.3573 117.77 39.2928 117.307 39.3687C116.845 39.4447 116.415 39.6578 116.075 39.9804C115.735 40.3029 115.5 40.7201 115.399 41.178C115.299 41.6359 115.338 42.1134 115.512 42.5487C115.686 42.9841 115.986 43.3572 116.374 43.6199C116.763 43.8825 117.221 44.0226 117.69 44.022C117.992 44.0453 118.296 44.0048 118.582 43.9034C118.868 43.8019 119.129 43.6417 119.349 43.433C119.569 43.2243 119.743 42.9718 119.86 42.6918C119.976 42.4117 120.033 42.1104 120.025 41.8072V41.8072Z" fill="white"/>
<path d="M123.355 36.4928C123.355 36.3844 123.377 36.2772 123.419 36.1775C123.462 36.0777 123.523 35.9874 123.601 35.912C123.679 35.8366 123.771 35.7776 123.872 35.7385C123.973 35.6994 124.081 35.6811 124.189 35.6845C124.346 35.6907 124.498 35.7428 124.625 35.8344C124.753 35.9259 124.85 36.0529 124.906 36.1995C124.962 36.3461 124.974 36.5059 124.94 36.6591C124.906 36.8124 124.828 36.9523 124.716 37.0615C124.603 37.1708 124.461 37.2446 124.306 37.2737C124.152 37.3029 123.993 37.2862 123.848 37.2256C123.703 37.1651 123.579 37.0634 123.492 36.9331C123.404 36.8028 123.357 36.6497 123.355 36.4928V36.4928ZM123.572 38.5931H124.8V45.384H123.572V38.5931Z" fill="white"/>
<path d="M133.248 42.3987H127.743C127.821 42.981 128.119 43.5114 128.576 43.8807C129.033 44.25 129.614 44.4303 130.2 44.3844C130.566 44.3969 130.931 44.3299 131.269 44.1882C131.608 44.0465 131.911 43.8334 132.16 43.5634L132.841 44.359C132.501 44.7268 132.086 45.016 131.623 45.2062C131.16 45.3964 130.661 45.483 130.161 45.46C127.972 45.46 126.514 44.0089 126.514 41.985C126.496 41.5305 126.571 41.0771 126.735 40.6529C126.899 40.2286 127.148 39.8425 127.467 39.5185C127.787 39.1946 128.169 38.9396 128.591 38.7694C129.013 38.5992 129.465 38.5174 129.919 38.5291C130.375 38.5165 130.829 38.5993 131.251 38.7724C131.673 38.9454 132.054 39.2047 132.37 39.5338C132.686 39.8628 132.929 40.2542 133.085 40.6829C133.241 41.1116 133.305 41.5682 133.274 42.0232C133.274 42.1314 133.261 42.2841 133.248 42.3987ZM127.743 41.514H132.096C132.038 40.9773 131.784 40.481 131.382 40.1204C130.98 39.7598 130.459 39.5604 129.919 39.5604C129.38 39.5604 128.859 39.7598 128.457 40.1204C128.055 40.481 127.801 40.9773 127.743 41.514V41.514Z" fill="white"/>
<path d="M134.121 44.6645L134.637 43.6908C135.345 44.1517 136.172 44.3971 137.017 44.3973C138.156 44.3973 138.627 44.0472 138.627 43.4744C138.627 41.9469 134.337 43.2707 134.337 40.5658C134.337 39.3502 135.426 38.5292 137.17 38.5292C138.035 38.5185 138.887 38.7381 139.639 39.1656L139.117 40.1394C138.531 39.7701 137.849 39.5819 137.157 39.5984C136.081 39.5984 135.559 39.9994 135.559 40.534C135.559 42.1378 139.862 40.8268 139.862 43.468C139.862 44.6964 138.729 45.4792 136.928 45.4792C135.931 45.4974 134.953 45.2134 134.121 44.6645V44.6645Z" fill="white"/>
<path d="M151.869 41.9854C151.892 42.4441 151.82 42.9026 151.656 43.3318C151.492 43.761 151.241 44.1514 150.919 44.4783C150.596 44.8051 150.209 45.0613 149.782 45.2304C149.355 45.3994 148.897 45.4778 148.438 45.4604C147.972 45.4795 147.508 45.3846 147.086 45.1839C146.665 44.9831 146.299 44.6826 146.02 44.3084V45.384H144.836V35.8818H146.071V39.6178C146.352 39.2636 146.714 38.9806 147.125 38.7916C147.536 38.6026 147.986 38.5128 148.438 38.5295C148.896 38.5094 149.353 38.5852 149.78 38.7521C150.207 38.919 150.595 39.1733 150.918 39.4987C151.241 39.8241 151.492 40.2133 151.656 40.6416C151.82 41.0698 151.892 41.5275 151.869 41.9854ZM150.628 41.9854C150.605 41.5393 150.453 41.1096 150.189 40.7494C149.925 40.3891 149.561 40.1141 149.142 39.9585C148.724 39.8028 148.268 39.7732 147.833 39.8733C147.398 39.9735 147.002 40.199 146.693 40.522C146.385 40.845 146.178 41.2514 146.098 41.6908C146.018 42.1302 146.068 42.5834 146.243 42.9944C146.418 43.4054 146.709 43.7561 147.081 44.0032C147.453 44.2503 147.89 44.383 148.336 44.3848C148.649 44.3937 148.96 44.3368 149.249 44.2179C149.538 44.099 149.8 43.9207 150.016 43.6945C150.232 43.4684 150.398 43.1994 150.503 42.9049C150.608 42.6105 150.651 42.2973 150.628 41.9854V41.9854Z" fill="white"/>
<path d="M159.386 38.6243L156.096 46.0898C155.498 47.5282 154.715 47.9992 153.677 47.9992C153.037 48.0141 152.414 47.7868 151.934 47.3627L152.462 46.4399C152.786 46.7586 153.223 46.9369 153.677 46.9363C154.263 46.9363 154.639 46.669 154.95 45.8862L155.167 45.4152L152.188 38.6243H153.461L155.829 44.0532L158.171 38.6243H159.386Z" fill="white"/>
<path d="M170.381 40.8461H171.61V44.3529C170.644 45.1124 169.446 45.5149 168.218 45.4921C167.597 45.5244 166.977 45.4292 166.396 45.2124C165.814 44.9957 165.283 44.6621 164.835 44.2321C164.387 43.8021 164.032 43.2849 163.791 42.7124C163.551 42.1399 163.431 41.5242 163.438 40.9033C163.438 38.2557 165.462 36.3209 168.243 36.3209C168.882 36.2939 169.519 36.4031 170.113 36.6412C170.707 36.8794 171.243 37.2409 171.686 37.702L170.891 38.4976C170.551 38.157 170.146 37.8893 169.699 37.711C169.253 37.5326 168.775 37.4472 168.294 37.4602C167.829 37.4402 167.365 37.5145 166.929 37.6787C166.493 37.8429 166.096 38.0935 165.759 38.4155C165.423 38.7375 165.156 39.1242 164.973 39.5523C164.79 39.9804 164.696 40.441 164.696 40.9065C164.696 41.372 164.79 41.8327 164.973 42.2608C165.156 42.6889 165.423 43.0755 165.759 43.3975C166.096 43.7195 166.493 43.9702 166.929 44.1344C167.365 44.2986 167.829 44.3729 168.294 44.3529C169.036 44.3709 169.766 44.1694 170.394 43.7737L170.381 40.8461Z" fill="white"/>
<path d="M179.982 42.3987H174.477C174.555 42.981 174.853 43.5114 175.31 43.8807C175.767 44.25 176.348 44.4303 176.934 44.3844C177.3 44.3969 177.665 44.3299 178.004 44.1882C178.342 44.0465 178.646 43.8334 178.894 43.5634L179.575 44.359C179.236 44.7268 178.82 45.016 178.357 45.2062C177.894 45.3964 177.396 45.483 176.896 45.46C174.706 45.46 173.249 44.0089 173.249 41.985C173.23 41.5305 173.305 41.0771 173.469 40.6529C173.633 40.2286 173.883 39.8425 174.202 39.5185C174.521 39.1946 174.903 38.9396 175.325 38.7694C175.747 38.5992 176.199 38.5174 176.654 38.5291C177.11 38.5165 177.563 38.5993 177.985 38.7724C178.407 38.9454 178.788 39.2047 179.104 39.5338C179.42 39.8628 179.664 40.2542 179.819 40.6829C179.975 41.1116 180.039 41.5682 180.008 42.0232C180.008 42.1314 179.995 42.2841 179.982 42.3987ZM174.477 41.514H178.85C178.791 40.9773 178.537 40.481 178.135 40.1204C177.734 39.7598 177.213 39.5604 176.673 39.5604C176.133 39.5604 175.612 39.7598 175.211 40.1204C174.809 40.481 174.554 40.9773 174.496 41.514H174.477Z" fill="white"/>
<path d="M187.825 42.3987H182.313C182.392 42.9815 182.692 43.5119 183.15 43.8811C183.608 44.2504 184.189 44.4304 184.776 44.3844C185.143 44.3968 185.507 44.3299 185.846 44.1882C186.184 44.0465 186.488 43.8334 186.736 43.5634L187.411 44.3589C187.073 44.727 186.659 45.0164 186.197 45.2066C185.735 45.3969 185.237 45.4834 184.738 45.46C182.548 45.46 181.085 44.0089 181.085 41.985C181.067 41.5308 181.143 41.0778 181.307 40.6539C181.471 40.2301 181.721 39.8444 182.04 39.5206C182.359 39.1968 182.741 38.9418 183.162 38.7713C183.583 38.6007 184.035 38.5183 184.489 38.5291C184.946 38.5165 185.399 38.5994 185.822 38.7724C186.244 38.9453 186.626 39.2045 186.942 39.5335C187.258 39.8624 187.502 40.2537 187.659 40.6825C187.815 41.1112 187.88 41.5678 187.85 42.0232C187.85 42.1314 187.837 42.2841 187.825 42.3987ZM182.313 41.514H186.673C186.608 40.9813 186.351 40.4905 185.949 40.1346C185.547 39.7787 185.029 39.5821 184.493 39.5821C183.956 39.5821 183.438 39.7787 183.036 40.1346C182.635 40.4905 182.377 40.9813 182.313 41.514V41.514Z" fill="white"/>
<path d="M192.215 42.2209L190.803 43.5256V45.384H189.574V35.8818H190.803V41.9727L194.507 38.5931H195.99L193.138 41.3998L196.276 45.384H194.761L192.215 42.2209Z" fill="white"/>
<path d="M196.367 44.6645L196.876 43.6908C197.587 44.1509 198.416 44.3961 199.263 44.3972C200.402 44.3972 200.873 44.0472 200.873 43.4744C200.873 41.9469 196.584 43.2707 196.584 40.5658C196.584 39.3502 197.672 38.5292 199.416 38.5292C200.281 38.5185 201.133 38.7381 201.885 39.1656L201.363 40.1394C200.777 39.7708 200.095 39.5827 199.403 39.5984C198.327 39.5984 197.799 39.9994 197.799 40.534C197.799 42.1378 202.102 40.8268 202.102 43.468C202.102 44.6964 200.975 45.4792 199.174 45.4792C198.177 45.4982 197.199 45.2141 196.367 44.6645V44.6645Z" fill="white"/>
<path d="M57.2419 33.4504C55.218 33.4504 54.3906 32.6357 54.3906 30.6373V11.1683C54.3906 9.2589 55.2307 8.47607 57.2801 8.47607H80.7587V13.7395H61.2897C61.08 13.73 60.8706 13.765 60.6754 13.8421C60.4801 13.9193 60.3033 14.0368 60.1567 14.1871C60.0101 14.3373 59.8969 14.5169 59.8245 14.714C59.7521 14.911 59.7222 15.1212 59.7368 15.3306V19.3021H80.6378V22.6243H59.7368V26.7931C59.7197 27.0049 59.7475 27.218 59.8184 27.4183C59.8893 27.6186 60.0018 27.8017 60.1484 27.9555C60.295 28.1094 60.4725 28.2305 60.6692 28.3109C60.8659 28.3914 61.0773 28.4294 61.2897 28.4224H80.7587V33.4504H57.2419Z" fill="white"/>
<path d="M87.1052 33.4504C85.0813 33.4504 84.2539 32.6357 84.2539 30.6373V11.1683C84.2539 9.2589 85.094 8.47607 87.1498 8.47607H110.622V13.7395H91.153C90.9433 13.73 90.7339 13.765 90.5387 13.8421C90.3434 13.9193 90.1666 14.0368 90.02 14.1871C89.8733 14.3373 89.7601 14.5169 89.6878 14.714C89.6154 14.911 89.5855 15.1212 89.6001 15.3306V19.3021H110.501V22.6243H89.6001V26.7931C89.5829 27.0049 89.6107 27.218 89.6817 27.4183C89.7526 27.6186 89.8651 27.8017 90.0117 27.9555C90.1583 28.1094 90.3358 28.2305 90.5325 28.3109C90.7292 28.3914 90.9406 28.4294 91.153 28.4224H110.622V33.4504H87.1052Z" fill="white"/>
<path d="M134.841 33.4504C134.52 33.1289 134.18 32.8271 133.823 32.5466L119.477 20.5495V33.4504H114.055V8.47607H119.477V20.4604L133.186 9.37983C133.529 9.10345 133.851 8.80132 134.147 8.47607H141.301L127.726 18.9839C127.55 19.1175 127.408 19.2898 127.31 19.4874C127.212 19.685 127.161 19.9026 127.161 20.1231C127.161 20.3436 127.212 20.5612 127.31 20.7588C127.408 20.9564 127.55 21.1287 127.726 21.2623L142.771 33.444L134.841 33.4504Z" fill="white"/>
<path d="M155.238 33.4502V12.4473C155.238 9.68515 156.448 8.45044 159.159 8.45044H181.6V13.7139H162.608C162.33 13.6947 162.051 13.7366 161.791 13.8368C161.531 13.937 161.295 14.0929 161.102 14.2937C160.908 14.4945 160.761 14.7353 160.671 14.999C160.58 15.2628 160.549 15.5432 160.578 15.8205V19.6392H181.479V24.4699H160.578V33.4311L155.238 33.4502Z" fill="white"/>
<path d="M196.671 33.4504V21.5169L184.82 8.47607H191.185C191.332 8.7055 191.502 8.91883 191.694 9.11252L198.44 16.4508C198.591 16.6214 198.776 16.7581 198.983 16.8517C199.191 16.9454 199.416 16.9938 199.643 16.9938C199.871 16.9938 200.096 16.9454 200.303 16.8517C200.511 16.7581 200.696 16.6214 200.846 16.4508H200.878L207.567 9.12525C207.763 8.92854 207.942 8.71563 208.102 8.4888H214.307L202.055 22.007V33.4631L196.671 33.4504Z" fill="white"/>
<path d="M148.989 6.49678C149.431 6.51245 149.87 6.43795 150.282 6.27784C150.693 6.11772 151.068 5.87536 151.382 5.56558C151.697 5.25579 151.945 4.8851 152.111 4.47616C152.278 4.06722 152.359 3.62864 152.35 3.18724C152.351 2.75392 152.263 2.32501 152.092 1.92683C151.921 1.52865 151.67 1.16958 151.356 0.871625C151.041 0.573672 150.669 0.343118 150.262 0.194096C149.855 0.0450739 149.422 -0.0192726 148.989 0.00499429C148.553 -0.00776592 148.119 0.0670386 147.712 0.224998C147.305 0.382957 146.934 0.620864 146.621 0.924649C146.308 1.22843 146.059 1.59194 145.888 1.99368C145.718 2.39541 145.63 2.82723 145.629 3.26361C145.628 3.69938 145.715 4.13089 145.885 4.5321C146.055 4.93332 146.304 5.29592 146.618 5.59805C146.933 5.90019 147.304 6.13558 147.712 6.29004C148.119 6.4445 148.554 6.51483 148.989 6.49678V6.49678Z" fill="white"/>
<path d="M151.839 8.53369H146.137V33.8198H151.839V8.53369Z" fill="white"/>
<path fill-rule="evenodd" clip-rule="evenodd" d="M47.7421 10.4557C45.7199 7.5333 42.8987 5.25535 39.6158 3.89438C36.3329 2.53341 32.7275 2.14706 29.2308 2.78154C25.7341 3.41602 22.4942 5.04447 19.8988 7.47207C17.3033 9.89966 15.4622 13.0236 14.5958 16.4702H5.45634C5.12801 15.9176 4.62733 15.4882 4.03124 15.2478C3.43515 15.0075 2.77662 14.9695 2.15686 15.1398C1.53709 15.31 0.990368 15.6791 0.600707 16.1902C0.211045 16.7013 0 17.3263 0 17.969C0 18.6117 0.211045 19.2367 0.600707 19.7478C0.990368 20.2589 1.53709 20.628 2.15686 20.7982C2.77662 20.9685 3.43515 20.9305 4.03124 20.6902C4.62733 20.4498 5.12801 20.0204 5.45634 19.4678H17.1097C17.4758 15.633 19.2592 12.0727 22.1112 9.48318C24.9632 6.89365 28.6787 5.46118 32.5309 5.46593C33.4103 5.44009 34.2898 5.51268 35.1531 5.68233L35.4522 5.73961C39.3581 6.48743 42.8253 8.71229 45.1326 11.9514V11.9514C45.7294 12.7579 46.2634 13.609 46.7301 14.4972L49.2759 13.0524C48.8352 12.1471 48.3223 11.2787 47.7421 10.4557V10.4557ZM2.936 19.3278C2.66788 19.3278 2.40578 19.2483 2.18285 19.0993C1.95991 18.9504 1.78616 18.7387 1.68355 18.491C1.58095 18.2432 1.5541 17.9707 1.60641 17.7077C1.65872 17.4447 1.78783 17.2032 1.97742 17.0136C2.16701 16.824 2.40856 16.6949 2.67153 16.6426C2.9345 16.5903 3.20707 16.6171 3.45478 16.7197C3.70249 16.8223 3.91422 16.9961 4.06318 17.219C4.21213 17.442 4.29164 17.7041 4.29164 17.9722C4.28997 18.3312 4.1466 18.675 3.89273 18.9289C3.63886 19.1828 3.29502 19.3261 2.936 19.3278Z" fill="white"/>
<path fill-rule="evenodd" clip-rule="evenodd" d="M44.9351 22.4653C44.8098 23.4911 44.5598 24.4978 44.1904 25.4629C43.387 27.5419 42.042 29.368 40.295 30.7519C38.548 32.1359 36.4625 33.0274 34.2549 33.3338C32.0473 33.6403 29.7979 33.3506 27.74 32.4949C25.6821 31.6391 23.8905 30.2484 22.5511 28.467C21.9355 27.6755 21.4183 26.812 21.0109 25.8957C20.9537 25.7621 20.8964 25.6284 20.8455 25.4884C20.4731 24.5242 20.223 23.5171 20.1008 22.4907C19.982 21.495 19.982 20.4887 20.1008 19.493C20.2902 16.686 21.44 14.0296 23.3569 11.9702C25.2739 9.91087 27.8412 8.57403 30.6275 8.1843C33.4139 7.79457 36.2495 8.3757 38.6579 9.83006C41.0663 11.2844 42.9008 13.5234 43.8531 16.1708L43.2867 16.4954L41.3773 17.6028C41.231 17.2233 41.0609 16.8535 40.8682 16.4954C40.5857 15.9683 40.2532 15.4695 39.8753 15.0061C38.9857 13.9094 37.8623 13.0253 36.5871 12.4186C35.312 11.8118 33.9174 11.4977 32.5052 11.4992H32.1806H32.0406H31.8688C30.2183 11.6086 28.6252 12.1484 27.2481 13.0649V13.0649L27.159 13.1285L27.1081 13.1667L27.0445 13.2049L26.9681 13.2622H26.9299C26.0013 13.9429 25.2035 14.786 24.5751 15.7507V15.7507L24.5114 15.8462V15.8907V15.9417C24.4096 16.1008 24.3205 16.2599 24.225 16.4254C23.7321 17.3459 23.3945 18.3416 23.2258 19.3721V19.423C23.0666 20.4159 23.0666 21.4278 23.2258 22.4207V22.4525V22.5735C23.4033 23.5567 23.734 24.5059 24.2059 25.3866C24.3014 25.5648 24.4032 25.7303 24.505 25.8957L24.5814 26.0167L24.6387 26.1058V26.1567C25.219 27.0082 25.9375 27.7567 26.7644 28.3715V28.3715L26.8599 28.4415L26.9363 28.4988C28.3664 29.5189 30.0523 30.1206 31.8051 30.2363H32.4416C34.6986 30.227 36.8794 29.4183 38.5968 27.9537C40.3143 26.4891 41.4572 24.4634 41.8228 22.2361L44.9351 22.4653Z" fill="white"/>
<path fill-rule="evenodd" clip-rule="evenodd" d="M50.9633 19.4677H35.1539C34.8256 18.9151 34.3249 18.4857 33.7288 18.2454C33.1327 18.005 32.4742 17.967 31.8544 18.1373C31.2347 18.3075 30.688 18.6766 30.2983 19.1877C29.9086 19.6988 29.6976 20.3238 29.6976 20.9665C29.6976 21.6092 29.9086 22.2342 30.2983 22.7453C30.688 23.2564 31.2347 23.6255 31.8544 23.7957C32.4742 23.966 33.1327 23.928 33.7288 23.6877C34.3249 23.4473 34.8256 23.0179 35.1539 22.4653H47.9529C47.6407 25.5977 46.382 28.5608 44.3443 30.9602C42.3066 33.3595 39.5866 35.0815 36.5461 35.8969C33.5056 36.7123 30.289 36.5825 27.3241 35.5247C24.3593 34.4669 21.7868 32.5313 19.9491 29.9755C19.3663 29.1613 18.8653 28.2915 18.4535 27.3787C18.1659 26.7606 17.9234 26.1225 17.7279 25.4694C17.4326 24.4921 17.2343 23.488 17.136 22.4717H9.75322C9.42488 21.9192 8.92421 21.4897 8.32811 21.2494C7.73202 21.009 7.0735 20.9711 6.45373 21.1413C5.83396 21.3116 5.28724 21.6806 4.89758 22.1917C4.50792 22.7029 4.29688 23.3278 4.29688 23.9706C4.29688 24.6133 4.50792 25.2382 4.89758 25.7494C5.28724 26.2605 5.83396 26.6295 6.45373 26.7998C7.0735 26.97 7.73202 26.9321 8.32811 26.6917C8.92421 26.4514 9.42488 26.0219 9.75322 25.4694H14.5966C14.888 26.6489 15.2974 27.796 15.8186 28.8935C16.2504 29.7971 16.7526 30.6654 17.3206 31.4902C19.4906 34.626 22.5768 37.0145 26.1566 38.3284C29.7365 39.6424 33.635 39.8177 37.3184 38.8303C41.0017 37.8429 44.2899 35.7411 46.7325 32.8127C49.1751 29.8843 50.6528 26.2725 50.9633 22.4717C51.0015 21.9816 51.0206 21.4789 51.0206 20.9761C51.0206 20.4733 51.0015 19.9641 50.9633 19.4677ZM32.6336 22.319C32.3652 22.319 32.1028 22.2393 31.8798 22.09C31.6567 21.9408 31.483 21.7287 31.3805 21.4806C31.2781 21.2325 31.2517 20.9596 31.3045 20.6965C31.3573 20.4334 31.487 20.1918 31.6773 20.0025C31.8675 19.8132 32.1097 19.6845 32.373 19.633C32.6364 19.5814 32.9092 19.6091 33.1568 19.7127C33.4044 19.8163 33.6157 19.991 33.7639 20.2148C33.9121 20.4386 33.9905 20.7013 33.9892 20.9697C33.9892 21.1474 33.9541 21.3234 33.8859 21.4875C33.8177 21.6516 33.7177 21.8007 33.5918 21.926C33.4658 22.0514 33.3163 22.1507 33.1519 22.2181C32.9875 22.2855 32.8113 22.3198 32.6336 22.319V22.319ZM7.23288 25.323C6.96395 25.323 6.7011 25.243 6.47778 25.0931C6.25445 24.9433 6.08073 24.7305 5.97871 24.4816C5.87669 24.2328 5.85098 23.9593 5.90485 23.6958C5.95873 23.4323 6.08975 23.1908 6.28125 23.002C6.47275 22.8132 6.71609 22.6856 6.9803 22.6355C7.24452 22.5854 7.51767 22.6149 7.76502 22.7205C8.01238 22.826 8.22275 23.0027 8.36939 23.2282C8.51603 23.4536 8.5923 23.7176 8.58852 23.9865C8.5835 24.3427 8.43846 24.6826 8.18477 24.9327C7.93108 25.1828 7.58913 25.323 7.23288 25.323Z" fill="white"/>
<path d="M219.314 10.023C220.338 10.023 220.873 10.564 220.873 11.2577C220.875 11.4861 220.81 11.71 220.685 11.9013C220.561 12.0927 220.383 12.243 220.173 12.3333V12.3333L221.166 13.7526H220.281L219.396 12.4797H218.353V13.7526H217.602V9.99756L219.314 10.023ZM219.314 10.6595H218.353V11.8942H219.314C219.829 11.8942 220.096 11.576 220.096 11.2577C220.096 10.9395 219.829 10.6213 219.314 10.6213V10.6595Z" fill="white"/>
<path d="M219.08 15.7636C218.351 15.7636 217.638 15.5475 217.032 15.1426C216.426 14.7377 215.954 14.1622 215.675 13.4888C215.396 12.8155 215.323 12.0745 215.465 11.3597C215.608 10.6449 215.958 9.98824 216.474 9.47288C216.989 8.95752 217.646 8.60655 218.361 8.46436C219.075 8.32218 219.816 8.39515 220.49 8.67406C221.163 8.95298 221.739 9.42529 222.144 10.0313C222.548 10.6373 222.765 11.3498 222.765 12.0786C222.765 12.5628 222.671 13.0423 222.486 13.4898C222.301 13.9373 222.03 14.3438 221.687 14.6862C221.345 15.0285 220.938 15.3 220.491 15.4849C220.043 15.6697 219.564 15.7645 219.08 15.7636ZM219.08 9.09366C218.488 9.09366 217.909 9.26925 217.417 9.59822C216.925 9.9272 216.542 10.3948 216.315 10.9417C216.089 11.4887 216.03 12.0905 216.146 12.6709C216.262 13.2513 216.548 13.7843 216.967 14.2024C217.386 14.6205 217.919 14.9049 218.5 15.0196C219.081 15.1343 219.682 15.0741 220.229 14.8467C220.775 14.6194 221.242 14.235 221.57 13.7422C221.898 13.2495 222.072 12.6705 222.071 12.0786C222.069 11.2864 221.753 10.5271 221.193 9.96754C220.632 9.40794 219.872 9.09365 219.08 9.09366V9.09366Z" fill="white"/>
</svg>
